<svg xmlns="http://www.w3.org/2000/svg" width="480" height="699" fill="none" viewBox="0 0 480 699"><g filter="url(#a)" opacity=".5"><path fill="url(#b)" d="M63.272 62.74C13.205 16.101-49.348 3.748-86.868 132.163c-50.229 171.909-42.827 295.468 18.667 427.931 48.124 103.661 79.882 14.043 138.553 14.413 76.203.482 120.624 37.94 196.808 43.241 65.08 4.528 129.232-37.185 193.91-14.414 43.74 15.399 65.961 49.106 107.013 0 67.803-81.104 41.919-220.428-9.495-379.223-33.954-104.87-50.407-91.948-109.748-91.948-68.901 0-100.324 32.651-166.393 23.36-85.957-12.089-152.487-30.665-219.175-92.785"/></g><defs><linearGradient id="b" x1="-227.948" x2="360.857" y1="669.766" y2="-216.695" gradientUnits="userSpaceOnUse"><stop stop-color="#9796f0"/><stop offset="1" stop-color="#ffe0e8"/></linearGradient><filter id="a" width="829" height="699" x="-170" y="0" color-interpolation-filters="sRGB" filterUnits="userSpaceOnUse"><feFlood flood-opacity="0" result="BackgroundImageFix"/><feColorMatrix in="SourceAlpha" result="hardAlpha" values="0 0 0 0 0 0 0 0 0 0 0 0 0 0 0 0 0 0 127 0"/><feOffset dy="20"/><feGaussianBlur stdDeviation="25"/><feColorMatrix values="0 0 0 0 0 0 0 0 0 0 0 0 0 0 0 0 0 0 0.1 0"/><feBlend in2="BackgroundImageFix" result="effect1_dropShadow_1_3633"/><feBlend in="SourceGraphic" in2="effect1_dropShadow_1_3633" result="shape"/></filter></defs></svg>