<svg xmlns="http://www.w3.org/2000/svg" width="1000" height="704" fill="none" viewBox="0 0 1000 704"><g filter="url(#a)" opacity=".5"><path fill="url(#b)" d="M251.591 30C54.716 30-61.55 71.423-165.876 186.966c-139.661 154.677-119.081 265.851 51.905 385.036 133.808 93.27 222.113 12.635 385.25 12.968 211.884.434 335.396 34.137 547.227 38.906 180.958 4.075 359.334-33.457 539.174-12.968 121.62 13.855 183.4 44.183 297.55 0 188.53-72.975 116.56-198.333-26.4-341.211-94.41-94.358-181.69-137.915-305.16-149.363-183.11-16.98-278.95 96.01-462.658 87.65C622.008 197.107 490.843 30 251.591 30"/></g><defs><linearGradient id="b" x1="-558.15" x2="-264.865" y1="675.106" y2="-542.468" gradientUnits="userSpaceOnUse"><stop stop-color="#9796f0"/><stop offset="1" stop-color="#ffe0e8"/></linearGradient><filter id="a" width="2127" height="704" x="-308" y="0" color-interpolation-filters="sRGB" filterUnits="userSpaceOnUse"><feFlood flood-opacity="0" result="BackgroundImageFix"/><feColorMatrix in="SourceAlpha" result="hardAlpha" values="0 0 0 0 0 0 0 0 0 0 0 0 0 0 0 0 0 0 127 0"/><feOffset dy="20"/><feGaussianBlur stdDeviation="25"/><feColorMatrix values="0 0 0 0 0 0 0 0 0 0 0 0 0 0 0 0 0 0 0.1 0"/><feBlend in2="BackgroundImageFix" result="effect1_dropShadow_1_6352"/><feBlend in="SourceGraphic" in2="effect1_dropShadow_1_6352" result="shape"/></filter></defs></svg>