<svg xmlns="http://www.w3.org/2000/svg" width="320" height="489" fill="none" viewBox="0 0 320 489"><g filter="url(#a)" opacity=".5"><path fill="url(#b)" d="M63.272 51.261C13.205 20.974-49.348 12.952-86.868 96.347c-50.229 111.64-42.827 191.882 18.667 277.905 48.124 67.319 79.882 9.119 138.553 9.36 76.203.313 120.624 24.639 196.808 28.081 65.08 2.941 129.232-24.148 193.91-9.36 43.74 10 65.961 31.89 107.013 0 67.803-52.671 41.919-143.15-9.495-246.274-33.954-68.104-50.407-59.712-109.748-59.712-68.901 0-100.324 21.204-166.393 15.17-85.957-7.85-152.487-19.914-219.175-60.256"/></g><defs><linearGradient id="b" x1="-227.948" x2="73.789" y1="445.474" y2="-254.036" gradientUnits="userSpaceOnUse"><stop stop-color="#9796f0"/><stop offset="1" stop-color="#ffe0e8"/></linearGradient><filter id="a" width="829" height="489" x="-170" y="0" color-interpolation-filters="sRGB" filterUnits="userSpaceOnUse"><feFlood flood-opacity="0" result="BackgroundImageFix"/><feColorMatrix in="SourceAlpha" result="hardAlpha" values="0 0 0 0 0 0 0 0 0 0 0 0 0 0 0 0 0 0 127 0"/><feOffset dy="20"/><feGaussianBlur stdDeviation="25"/><feColorMatrix values="0 0 0 0 0 0 0 0 0 0 0 0 0 0 0 0 0 0 0.1 0"/><feBlend in2="BackgroundImageFix" result="effect1_dropShadow_1_2432"/><feBlend in="SourceGraphic" in2="effect1_dropShadow_1_2432" result="shape"/></filter></defs></svg>