<svg xmlns="http://www.w3.org/2000/svg" width="253" height="63" fill="none" viewBox="0 0 253 63"><path fill="#222227" d="M215.655 27.034c-.089-.445-.178-.89-.222-1.381-.223-2.54-1.292-4.723-2.719-6.772-.802-1.114-1.871-1.96-2.985-2.763-1.203-.935-2.628-1.425-4.009-1.96-.268-.09.311-1.292 1.649-2.94.222-.268.222-.535.044-.803-.758-1.336-1.783-2.361-3.297-2.851-2.139-.713-3.966-.357-5.525 1.292-.624.668-1.159 1.381-1.693 2.094-.134.178-.224.446-.49.356-.268-.044-.178-.311-.178-.49a25.5 25.5 0 0 0-1.159-5.48c-.178-.58-.312-.668-.892-.668-.845-.045-1.559.267-2.182.802-.534.49-1.024 1.07-1.694 1.426-.445.267-.489.4-.133.846a15 15 0 0 1 1.604 2.718c.267.624.356 1.247.401 1.916 0 .178 0 .4-.223.579-.847-.446-1.782-.668-2.718-.758-1.024-.089-2.049-.044-3.029.223-1.069.312-1.917.891-2.718 1.604a6.17 6.17 0 0 0-1.782 2.718c-.223.668-.133.847.534 1.114.09.044.178.044.268.09.712.31 1.515.578 2.361.756a2.3 2.3 0 0 1-.534.58c-.713.668-1.427 1.336-2.05 2.094-1.202 1.47-2.05 3.074-2.539 4.9-.224.803-.312 1.65-.446 2.496-.312 2.05-.268 4.054.178 6.06.579 2.45 1.737 4.633 3.252 6.682 1.026 1.426 2.273 2.584 3.788 3.565 1.248.802 2.629 1.336 4.054 1.737 1.025.268 2.095.49 3.163.758.445.089.803.267.847.757.044.312.268.49.534.624.268.134.536.267.847.267 1.47.134 2.941.09 4.41-.356.58-.178 1.115-.267 1.694-.223.713.09 1.337-.134 1.916-.535q.534-.333.534-.935c0-.58.312-.847.802-1.07.757-.356 1.471-.712 2.095-1.247 1.603-1.337 3.252-2.584 4.455-4.322.846-1.203 1.649-2.406 2.227-3.742.758-1.738 1.293-3.565 1.693-5.436a14.1 14.1 0 0 0-.133-4.322m-29.228 10.738c-.088.044-.134.089-.222.089-.134 0-.267-.045-.312-.09-.133-.044-.223-.133-.311-.178a4.1 4.1 0 0 1-1.16-1.425c-.757-1.337-1.247-2.852-1.515-4.5-.088-.758-.178-1.515.046-2.317.088-.49.356-.936.757-1.203.356-.267.624-.223.756-.134.134.045.358.223.358.669 0 .267.044.623 0 .98-.134 1.47.088 2.94.624 4.544.088.268.178.58.267.847.223.713.49 1.47.802 2.183.044.09.178.356-.09.535m1.471-15.015c-.179.312-.357.58-.535.757-.4.401-.802.847-1.114 1.337l-.089.134c-.267.356-.49.713-.802 1.024-.222.268-.446.312-.58.312h-.088c-.224-.044-.446-.267-.535-.579-.178-.49-.044-.936.089-1.337.222-.802.936-1.87 1.516-2.361.445-.401.935-.58 1.515-.535.312.045.578.179.712.401.089.223.045.535-.089.847"/><path fill="#222227" d="M252.192 40.846c-.801-.713-1.649-1.47-2.406-2.228-2.227-2.227-4.278-4.633-6.415-6.906-1.693-1.826-3.209-3.831-4.902-5.703-.178-.178-.312-.445-.446-.623-.311-.357-.267-.713-.044-1.114.712-1.248 1.382-2.495 2.139-3.698 3.119-5.035 6.147-10.07 9.356-15.06.445-.668.445-.802-.178-1.247-1.827-1.381-3.742-2.584-5.837-3.565-.58-.267-1.158-.534-1.781-.668-.358-.089-.624 0-.848.223-.134.178-.268.4-.4.58-.535.935-1.025 1.87-1.561 2.806a1192 1192 0 0 1-5.078 8.198l-.935 1.604a109 109 0 0 1-1.783 3.03c-.222.4-.312.4-.624.044-.579-.623-1.069-1.292-1.559-1.96-1.917-2.584-3.654-5.213-5.615-7.753-.4-.534-.49-.579-1.157-.311-1.694.623-3.209 1.603-4.59 2.717-.668.535-1.381 1.07-1.959 1.783-.624.757-.492 1.024-.09 1.648 1.559 2.584 3.564 4.901 5.257 7.396 1.337 1.916 2.719 3.743 4.054 5.614.134.178.268.356.268.58 0 .222-.178.4-.268.578-1.335 2.317-2.762 4.634-4.01 6.995-1.247 2.362-2.583 4.679-3.876 6.996-1.335 2.36-2.628 4.678-3.964 6.995-1.337 2.316-2.718 4.589-3.922 6.95-.356.713-.356.757.178 1.381 1.204 1.337 2.541 2.584 4.056 3.61 1.202.846 2.405 1.648 3.696 2.271.714.312.982.223 1.338-.445 1.649-3.208 3.386-6.371 5.079-9.58.98-1.87 1.961-3.742 2.896-5.658l2.273-4.544c.936-1.872 1.871-3.698 2.895-5.48.402-.669.402-.669.891-.09l.045.045a447 447 0 0 0 7.308 8.733c1.023 1.203 2.049 2.361 3.206 3.475.624.58.848.58 1.561.178a33 33 0 0 0 2.049-1.381c1.781-1.337 3.564-2.673 5.168-4.277.267-.268.49-.535.669-.847.4-.624.4-.802-.134-1.292m-32.747-26.733c-.09.045-.178.045-.268.045a.55.55 0 0 1-.446-.223l-.222-.312c-.401-.49-.803-1.024-1.115-1.604a.64.64 0 0 1 .18-.802c.266-.223.578-.178.801.09.49.534.892 1.202 1.292 1.782l.09.089c.044.089.044.178.088.222v.09c-.044.356-.178.534-.4.623m7.796 9.58c-.088.222-.312.311-.534.311-.312 0-.49-.222-.624-.356-.935-1.114-1.738-2.183-2.718-3.52-1.069-1.47-1.915-2.673-2.585-3.831-.133-.179-.4-.624.09-.936.312-.223.624-.134.892.223.578.668 1.069 1.38 1.559 2.094.266.4.579.802.846 1.203.623.846 1.203 1.648 1.827 2.495.401.579.801 1.114 1.247 1.693.044.133.134.356 0 .624m-50.48 12.118c-1.248-3.653-3.431-6.505-6.995-8.153-.535-.268-.535-.357-.09-.713 1.917-1.426 2.987-3.43 3.744-5.614.534-1.604.846-3.252.578-4.945-.534-3.386-2.139-6.06-5.079-7.887-2.317-1.47-4.856-2.36-7.529-2.94-1.471-.312-2.94-.446-4.455-.58-1.605-.133-3.253 0-4.857.179-.891.089-1.47.49-1.693 1.426-.312 1.292-.579 2.584-.936 3.876-.846 3.252-1.381 6.55-1.782 9.89-.134 1.115-.178 2.273-.267 3.432-.045.579-.045.579-.58.668a58 58 0 0 1-2.762.312c-.757.089-.846.223-1.025.98-.089.49-.757 4.277-.311 7.708.089.802.267.891 1.113.802.758-.09 1.515-.223 2.273-.356.49-.09.49-.045.445.4-.445 3.699-.713 7.441-.802 10.916v4.812c0 .713.312 1.292.936 1.649.668.445 1.381.846 2.138 1.114 1.961.668 3.921 1.203 5.971 1.292 2.539.133 5.079.089 7.618-.223 2.495-.312 4.857-.98 7.084-2.094 1.471-.758 2.853-1.693 3.966-2.985 1.915-2.273 3.119-4.812 3.564-7.753.268-1.737.312-3.52-.267-5.213m-31.277-6.727c0 .356-.223.579-.535.623h-.134c-.311 0-.534-.178-.623-.49-.045-.267-.045-.534-.045-.713v-.267c0-.534 0-.935.089-1.336.134-.58.49-.624.713-.624.178 0 .579.133.579.757 0 .669 0 1.337-.044 2.05m6.728-16.441c-.401 2.094-.758 4.366-1.114 6.906-.089.535-.134 1.025-.223 1.56-.045.49-.134.935-.178 1.425-.045.268-.089.624-.535.758h-.178a.5.5 0 0 1-.357-.134c-.133-.09-.267-.312-.267-.758l.045-.623c.222-2.45.445-4.99.935-7.44.134-.625.268-1.338.58-2.05.178-.401.445-.535.757-.446.267.045.624.223.535.802m1.158-4.945a25 25 0 0 1-.579 2.316c-.089.312-.312.446-.579.446h-.134c-.267-.045-.535-.223-.49-.802l.044-.312c.09-.624.223-1.292.491-1.96.133-.357.445-.49.757-.401.401.089.579.356.49.713m4.01 8.91q.133-1.27.4-2.54c.134-.757.268-.846.982-.801 1.291.133 2.583.312 3.83.802 2.273.89 3.476 2.985 3.164 5.39-.268 2.318-1.559 3.788-3.654 4.59-1.469.58-3.029.802-4.633.802-.712 0-.712-.045-.758-.713v-.846c.18-2.228.358-4.456.669-6.684m8.644 25.62a9.8 9.8 0 0 1-5.124 2.628c-1.515.312-3.074.356-4.633.267-.625-.044-.714-.133-.714-.802 0-1.47.178-7.975.312-9.757.088-1.025.044-1.025 1.114-1.203 2.139-.312 4.277-.401 6.371.178 1.471.401 2.718 1.159 3.476 2.54 1.069 1.871.757 4.589-.802 6.148M59.806 52.607c-1.782-2.005-3.297-4.188-4.857-6.37-2.718-3.832-4.856-7.976-7.04-12.075-.222-.401-.356-.847-.534-1.248-.178-.49-.134-.49.312-.668.4-.178.846-.267 1.247-.49 2.94-1.515 6.283-4.277 6.594-9.134.134-2.005-.178-4.01-1.024-5.88-.312-.67-.58-1.382-1.07-1.917-.623-.713-1.247-1.47-1.871-2.183a8.4 8.4 0 0 0-2.673-2.005c-2.45-1.292-5.124-1.782-7.842-1.827-2.629 0-5.346-.044-8.109.134-1.38.09-2.762.267-4.099.535-.712.133-.89.312-.89 1.069 0 1.203.044 2.361.088 3.564.045.713.134 1.47.268 2.184.089.579.223.668.802.668.49 0 .98 0 1.514.044.802.045.802.045.802.892 0 .089-.178 3.475-.222 5.123-.045.98-.49 6.505-.49 8.287 0 2.585-.179 5.124-.179 7.708 0 1.025-.312 6.683-.222 8.51.044 1.114.044 2.228.222 3.342.09.579.179.668.758.757 1.114.178 2.272.134 3.43.223.936.044 1.916 0 2.852-.044.58-.045.757-.223.757-.803v-.445c0-1.782-.044-3.564.045-5.347.09-2.94.312-5.88.4-8.866 0-.223 0-.668.135-.713.133-.044.356.49.49.758.668 1.38 1.425 2.762 2.183 4.099 1.871 3.163 3.876 6.193 5.837 9.311 1.247 1.916 2.628 3.743 4.054 5.525.624.802 1.248 1.56 2.005 2.228.445.401.58.267 1.114 0 1.07-.58 3.742-2.406 5.034-3.52.713-.624.758-.757.179-1.425m-28.96-38.762c0 .357-.224.624-.58.668h-.09c-.311 0-.534-.222-.623-.534-.134-.713-.267-1.47-.134-2.228v-.134c0-.089 0-.133.045-.223.09-.4.357-.623.758-.579.4.045.623.357.579.758-.045.445 0 .935 0 1.38v.402c.044.178.044.356.044.49m2.762 20.272v.713h-.09v.223c0 .356 0 .713-.044 1.07 0 .534-.312.667-.535.667h-.044c-.357 0-.58-.222-.58-.623a22 22 0 0 1 .045-2.896v-.09c0-.088 0-.178.045-.267.044-.4.312-.623.623-.579.401 0 .624.267.624.669 0 .356 0 .712-.044 1.113m.49-9.713a98 98 0 0 1-.223 3.61c-.045.757-.09 1.559-.134 2.316 0 .223-.044.713-.579.758h-.044c-.58 0-.624-.535-.624-.758-.134-1.47-.045-2.896.089-4.277 0-.267.044-.58.044-.847v-.4l.045-.312c.134-1.694.223-3.431.446-5.124.044-.446.133-.891.222-1.292.09-.401.357-.624.713-.58.178 0 .58.134.535.758-.267 2.005-.401 4.099-.49 6.148m11.718.134c-.847.58-1.783.758-2.763.891-.356.045-.757.045-1.158.09a5.3 5.3 0 0 1-1.693-.134c-.535-.09-.624-.179-.624-.758.09-1.292.267-2.584.49-3.876.178-1.158.401-2.361.624-3.52.133-.668.133-.624.757-.624 1.159.045 2.272.357 3.297.847 1.738.757 2.673 1.871 2.718 4.144.045 1.292-.624 2.227-1.648 2.94m73.247 19.07c-.089-.892-.178-1.738-.49-2.585-.178-.49-.535-.802-1.069-.802-1.159-.044-2.317-.133-3.52-.133-2.451 0-4.857.178-7.263.534-2.361.357-4.722.669-6.995 1.337-.133.044-.356.134-.4 0s.222-.446.356-.668c2.272-3.476 4.856-6.728 7.44-9.98 2.005-2.585 4.144-5.125 6.416-7.486.223-.223.446-.49.446-.846.089-2.852-.223-5.703-.49-8.555-.045-.534-.223-.668-.802-.668-.223 0-.49 0-.713-.045-4.946-.044-18.49.179-20.272.357-1.56.178-3.075.312-4.634.49-.624.089-.802.267-.802.891-.045.401-.045.802-.045 1.203.045 1.871.045 3.742.535 5.614.178.713.357.846 1.025.757.757-.089 1.515-.133 2.272-.267 2.005-.267 4.01-.49 6.015-.624l5.614-.4c.668-.045 2.005-.224 2.094-.045.089.133-.312.579-.49.802-.98 1.247-2.005 2.406-2.896 3.698-2.05 2.896-4.01 5.792-6.06 8.643-2.005 2.718-3.787 5.614-5.88 8.243-.224.267-.446.579-.625.89-.133.224-.178.446-.044.758a436 436 0 0 1 2.495 6.995c.089.312.223.58.312.847.089.312.312.4.623.312l.535-.134c1.025-.267 2.005-.534 3.03-.802 3.831-.935 7.752-1.604 11.629-2.272 3.742-.624 7.529-1.025 11.361-1.025 1.248 0 1.381-.089 1.426-1.381.089-1.159-.045-2.406-.134-3.654M89.167 18.79c0 .357-.223.624-.58.669H88.5c-.312 0-.535-.223-.624-.535-.134-.713-.267-1.47-.134-2.227v-.134c0-.09 0-.134.045-.223.089-.4.356-.624.757-.58s.624.357.58.758c-.045.446 0 .936 0 1.382v.4c.044.179.044.357.044.49m14.658 5.57.134-.223c.312-.58.668-1.158 1.159-1.648a.68.68 0 0 1 .802-.134c.222.134.356.312.356.624 0 .267-.134.445-.267.579a.6.6 0 0 0-.134.178c-.223.357-.49.713-.757 1.07l-.09.133c-.089.134-.267.357-.623.357h-.089c-.223 0-.401-.134-.535-.357-.089-.134-.089-.356.044-.58m-6.148 11.138c-.267.401-.49.758-.757 1.159-.09.178-.268.4-.58.4h-.044a.58.58 0 0 1-.535-.311.68.68 0 0 1 0-.713l.401-.624c.357-.534.668-1.069.98-1.604.891-1.514 1.96-3.03 3.164-4.678l.356-.49c.49-.668 1.025-1.381 1.604-2.005.267-.267.535-.356.802-.223.267.09.356.312.401.624v.09c-.045.267-.223.49-.356.668l-.134.133c-.49.668-.936 1.337-1.426 2.005-.757 1.07-1.515 2.094-2.272 3.164z"/><path fill="#222227" d="M85.688 33.36c-.09-.445-.178-.89-.312-1.336-.401-1.47-.758-2.94-1.248-4.366-.222-.713-.49-.847-1.203-.668-.668.133-1.292.312-1.96.445-1.292.312-1.248.669-1.649-.98-.712-2.896-2.806-12.252-3.297-14.97-.089-.624-.356-.713-.668-.802a39 39 0 0 0-3.698-.713c-1.56-.268-3.163-.49-4.545-.668-1.024-.045-1.203.089-1.559.802-1.515 3.207-2.45 6.594-3.564 9.935-1.159 3.564-2.406 7.129-3.386 10.738a238 238 0 0 0-2.54 10.826c-.267 1.203-.223 1.337.891 1.827a40 40 0 0 0 6.371 2.272c.713.179.758.134.98-.534.446-1.47.713-2.94 1.07-4.456.356-1.648.356-1.648 1.96-2.183s3.164-.98 4.767-1.47c.669-.223.669-.178.892.49.4 1.515.802 3.074 1.292 4.59.49 1.692 1.07 3.43 1.515 5.123.178.668.312 1.337.534 2.005.223.757.312.802 1.07.624 2.138-.446 4.232-1.07 6.326-1.783.312-.089.58-.222.847-.4.535-.357.58-.49.445-1.114-.4-1.649-.98-3.253-1.47-4.857-.49-1.738-.891-3.52-1.426-5.257-.133-.401-.223-.847-.356-1.248-.09-.222 0-.356.223-.4.133 0 .222-.045.356-.045.891-.178 1.827-.312 2.718-.49.624 0 .757-.223.624-.936M66.485 16.476l-.446 1.247c-.4 1.114-.802 2.317-1.203 3.43-.222.758-.49 1.471-.713 2.229a13 13 0 0 0-.356 1.247c-.401 1.248-.758 2.495-1.159 3.743l-.267.802c-.133.445-.445.534-.624.534h-.178c-.356-.089-.535-.356-.535-.713v-.044c.179-.936.446-1.827.713-2.629.223-.713.446-1.47.669-2.183.4-1.247.802-2.584 1.203-3.832.445-1.336.98-2.673 1.693-4.277.267-.534.668-.445.802-.4.4.088.534.445.4.846m.267-2.362c-.09 0-.178 0-.267-.044-.357-.134-.535-.446-.401-.847l.044-.133c.178-.624.357-1.248.669-1.827.178-.357.49-.49.802-.401.311.089.49.356.49.713v.089l-.045.134c-.044.089-.089.222-.134.356l-.089.223c-.178.445-.312.846-.49 1.292-.089.267-.312.445-.579.445m3.965 16.53a85 85 0 0 0-3.208.847c-.222.044-.311.089-.222-.535.534-2.896 1.693-7.93 1.737-8.064s.134-.268.312-.223c.134 0 .178.134.178.267.268.802.446 1.649.669 2.495.356 1.47.713 2.94 1.024 4.456.134.579.09.623-.49.757m73.693-19.648c-1.514-1.337-3.163-2.406-4.99-3.297-.178-.09-.356-.134-.534-.223-.758-.223-1.025-.134-1.382.579-.668 1.203-1.247 2.45-1.915 3.698-1.515 2.807-3.208 5.525-4.946 8.153-.356.535-.579.58-.936 0-2.005-3.074-4.054-6.103-5.925-9.267-1.649-2.851-3.297-5.703-4.768-8.643-.311-.624-.445-.669-1.069-.401-1.96.846-3.921 1.782-5.703 2.94-.401.267-.757.49-1.114.802-.401.312-.445.535-.222.98.178.401.401.758.623 1.114 1.292 2.228 2.629 4.411 3.966 6.639 2.272 3.876 4.544 7.708 7.173 11.317 1.292 1.782 2.629 3.564 3.921 5.346.223.268.312.58.312.936-.09 5.079.445 12.297.712 14.747.223 2.005.535 4.01 1.025 5.97.178.803.178.758.98.803 1.292.089 2.585-.134 3.832-.357 1.159-.178 2.362-.4 3.475-.846.98-.401 1.114-.624.891-1.649-.668-2.985-2.004-13.366-2.272-15.55a93 93 0 0 1-.445-6.103c0-.357.089-.669.312-.98 1.826-2.63 3.653-5.213 5.346-7.931 1.515-2.406 2.852-4.901 3.921-7.53.312-.624.312-.757-.268-1.247M116.341 9.88c-.089.089-.223.089-.312.089a.62.62 0 0 1-.49-.268 12 12 0 0 1-1.827-2.762c-.044-.089-.044-.134-.044-.178v-.09c.044-.4.267-.534.445-.578.268-.09.535.044.713.267.446.624.847 1.247 1.248 1.827.178.312.356.623.49.846.134.357.044.668-.223.847m7.307 11.584c-.134.178-.312.312-.579.312h-.089c-.312-.045-.535-.312-.669-.535a38 38 0 0 1-1.604-2.406l-.401-.624c-1.113-1.737-2.183-3.475-3.118-5.168-.089-.134-.134-.267-.223-.4-.089-.18-.178-.357-.312-.536-.312-.49-.089-.757.089-.935.446-.312.802.133.891.267.446.624.847 1.292 1.248 1.96.223.357.401.713.624 1.07a447 447 0 0 0 3.831 6.015c.045.044.089.133.134.178l.089.134c.223.222.223.445.089.668M27.588 35.99a20 20 0 0 0-2.762-.891c-1.336-.357-2.718-.446-4.099-.446-.534 0-.89.134-1.158.668-.267.535-.535 1.07-.891 1.56-.758 1.114-1.693 2.005-2.985 2.45-2.63.936-5.302-.668-6.238-2.718a13 13 0 0 1-1.025-3.386c-.356-2.272-.267-4.455.49-6.638.98-2.63 2.941-4.01 5.659-4.411.935-.134 1.871 0 2.718.356 1.158.446 1.871 1.337 2.495 2.362.4.712.4.712 1.113.445 2.095-.802 4.01-1.96 5.882-3.208.445-.312.445-.312.222-.802-.356-.802-.846-1.56-1.291-2.317-2.317-4.232-6.06-6.059-10.738-6.193-1.426-.044-2.852.268-4.233.669-1.47.445-2.896 1.024-4.099 1.96-2.094 1.649-3.787 3.609-4.856 6.06C.455 24.583-.08 27.835.009 31.177c.045 6.55 1.872 10.604 3.654 13.01 1.782 2.361 3.92 4.277 6.861 5.123 1.693.49 3.431.758 5.169.49 1.916-.311 3.698-.935 5.302-2.004 1.737-1.159 3.208-2.54 4.277-4.322.98-1.649 1.737-3.43 2.45-5.213.179-.401.268-.847.401-1.292.134-.624.045-.758-.534-.98M6.827 19.237c-.935 1.203-1.56 2.584-2.138 3.92a17.9 17.9 0 0 0-1.381 7.263c0 .312 0 .535.044.758.045.534-.267.668-.445.713h-.134a.84.84 0 0 1-.357-.09.55.55 0 0 1-.222-.445c-.045-.178-.045-.357-.09-.535a7 7 0 0 1-.133-1.336v-.268c0-1.158.223-2.272.4-3.163.446-2.139 1.293-4.277 2.674-6.505.223-.4.535-.758.891-1.114.268-.267.624-.312.936-.044.178.222.223.534-.045.846m.713-1.56a.57.57 0 0 1-.089-.801c.802-.98 1.693-1.56 2.718-1.827a.73.73 0 0 1 .535.09.72.72 0 0 1 .222.49.53.53 0 0 1-.445.534c-.713.223-1.248.668-1.693 1.114a2.4 2.4 0 0 1-.49.4c-.134.09-.223.134-.357.134-.133.045-.267-.044-.4-.133"/></svg>